<svg width="326" height="326" viewBox="0 0 326 326" fill="none" xmlns="http://www.w3.org/2000/svg">
<path d="M166.395 149.266C161.319 150.192 157.858 152.791 155.264 156.543C153.189 159.544 151.98 163.699 152.675 167.507L173.723 149.896C171.588 148.974 168.934 148.803 166.395 149.266ZM227.317 138.149C222.875 138.96 219.415 141.558 216.821 145.31C214.745 148.312 213.421 151.832 213.481 155.756L235.28 138.663C232.51 137.857 229.855 137.686 227.317 138.149ZM308.745 163.946C317.625 155.112 327.774 146.047 325.458 133.355C323.257 121.298 310.445 115.767 299.133 111.274C295.497 109.314 288.456 106.665 286.089 104.474C285.626 101.935 288.044 93.6254 289.369 90.105C293.112 78.2746 296.623 65.175 289.059 56.0636C280.744 46.4334 267.302 48.2306 255.129 49.7962C251.321 50.491 242.955 51.3618 240.936 51.0746C239.203 48.7678 237.179 41.2684 236.369 36.8262C233.534 24.8846 230.467 11.6738 218.521 7.29639C215.751 6.49039 212.347 5.80019 208.539 6.49499C200.924 7.88459 193.485 13.8322 186.564 19.0294C182.585 22.3784 176.702 26.0748 174.28 27.1726C171.394 25.732 166.428 20.0808 163.946 17.2552C155.112 8.37539 146.047 -1.77361 133.355 0.542393C121.298 2.74259 115.767 15.555 111.274 26.8666C109.314 30.5028 106.665 37.5436 104.474 39.9106C101.935 40.3738 95.0104 38.3588 90.105 36.631C81.795 34.213 72.7346 31.2762 65.1194 32.6658C61.9464 33.2448 58.3704 35.2088 56.0636 36.9412C46.4334 45.2558 48.2306 58.6982 49.7962 70.8714C50.6068 75.3136 51.3618 83.0446 51.1904 85.6988C48.7678 86.7966 41.2684 88.8208 36.8262 89.6314C24.8846 92.4662 11.6738 95.5326 7.29639 107.479C3.43779 118.675 11.3494 129.69 19.0294 139.436C21.5122 142.261 26.7094 149.182 27.1726 151.72C25.732 154.606 20.0808 159.572 17.371 162.689C8.37539 170.888 -1.65781 180.587 0.542386 192.645C2.85839 205.337 15.555 210.233 26.9824 215.361C30.5028 216.686 37.5436 219.335 39.9106 221.526C40.3738 224.065 37.9558 232.375 36.631 235.895C32.8882 247.725 29.377 260.825 36.9412 269.936C45.2558 279.567 58.6982 277.769 70.8714 276.204C75.3136 275.393 83.0446 274.638 85.8146 275.444C86.7966 277.232 88.9366 285.366 89.6314 289.174C92.4662 301.115 95.5326 314.326 107.479 318.704C110.249 319.51 114.288 320.084 117.461 319.505C125.076 318.115 132.515 312.168 139.436 306.971C143.531 304.256 149.298 299.925 151.72 298.827C154.606 300.268 159.572 305.919 162.689 308.629C170.888 317.625 180.587 327.658 192.645 325.458C205.337 323.142 210.233 310.445 215.361 299.018C216.686 295.497 219.335 288.456 221.526 286.089C224.18 286.261 231.105 288.276 235.895 289.369C244.205 291.787 253.265 294.724 260.881 293.334C264.688 292.639 267.63 290.791 269.936 289.059C279.567 280.744 277.769 267.302 276.204 255.129C275.509 251.321 274.638 242.955 275.56 240.82C277.232 239.203 285.366 237.063 289.174 236.369C301.115 233.534 314.326 230.467 318.704 218.521C322.562 207.325 314.651 196.31 306.971 186.564C304.488 183.739 299.291 176.818 298.827 174.28C300.268 171.394 305.919 166.428 308.745 163.946ZM93.1618 125.253C93.7408 128.426 91.1468 132.178 87.3392 132.872L85.4354 133.22C81.6278 133.915 79.321 135.647 77.8804 138.533C75.8052 141.534 75.6338 144.189 76.097 146.727L76.9076 151.169L87.0612 149.316C90.2342 148.737 93.9862 151.331 94.5652 154.504L94.9126 156.408C95.6074 160.216 92.8976 163.333 89.7246 163.912L79.571 165.765L86.8664 205.745C87.5612 209.552 84.9672 213.304 81.1596 213.999L79.2558 214.347C76.0828 214.926 72.3308 212.332 71.636 208.524L61.214 151.41C59.7086 143.16 60.9732 135.716 64.489 129.829C68.6394 123.826 74.5222 120.129 82.772 118.624L84.6758 118.277C88.4834 117.582 92.2354 120.176 92.9302 123.983L93.1618 125.253ZM130.742 155.116C125.781 156.677 122.955 159.16 120.361 162.912C118.518 167.183 118.059 171.856 118.986 176.933L123.039 199.144C123.733 202.952 121.139 206.704 117.332 207.399L115.428 207.746C112.255 208.325 108.503 205.731 107.808 201.923L99.0074 153.694C98.7758 152.425 99.063 150.405 100.101 148.904C101.138 147.403 102.926 146.421 104.195 146.19L106.099 145.842C109.272 145.263 112.158 146.704 113.256 149.127C117.754 145.027 122.483 142.197 127.444 140.636C129.348 140.289 131.367 140.576 132.868 141.613C134.369 142.651 135.351 144.439 135.698 146.343L135.93 147.612C136.625 151.42 134.55 154.421 130.742 155.116ZM200.798 172.496C199.589 176.651 198.264 180.171 195.67 183.923C190.482 191.427 183.446 195.99 175.196 197.495C166.312 199.117 158.118 197.333 151.248 192.029C143.86 187.476 139.297 180.44 137.676 171.555C136.171 163.306 137.954 155.111 143.142 147.607C147.696 140.219 154.848 136.291 163.732 134.67C171.347 133.28 178.041 134.026 184.563 137.426C188.199 139.386 190.566 141.577 192.067 142.614C193.683 144.286 194.031 146.19 194.378 148.094C194.091 150.114 193.053 151.614 191.381 153.231L159.433 179.388C159.433 179.388 159.433 179.388 159.549 180.023C163.301 182.617 167.34 183.191 172.417 182.265C176.859 181.454 180.435 179.49 183.029 175.738C184.586 173.487 184.873 171.468 185.91 169.967C185.966 166.678 188.907 164.83 192.08 164.251L194.1 164.538C196.004 164.191 198.139 165.112 199.121 166.9C200.738 168.573 201.085 170.476 200.798 172.496ZM261.72 161.379C261.145 165.418 259.186 169.055 256.592 172.807C252.038 180.195 245.002 184.757 236.118 186.379C227.868 187.884 219.674 186.101 212.17 180.913C204.782 176.359 200.854 169.207 199.232 160.323C197.727 152.073 198.876 143.995 204.064 136.491C209.252 128.987 216.404 125.059 224.654 123.553C232.269 122.164 238.328 123.025 245.368 125.675C249.639 127.518 251.372 129.825 252.988 131.497C254.605 133.17 255.587 134.958 255.3 136.977C255.647 138.881 254.609 140.382 252.937 141.998L221.392 166.771C220.874 167.521 220.239 167.637 220.239 167.637C220.355 168.272 220.355 168.272 221.105 168.79C224.857 171.384 228.896 171.959 233.339 171.148C238.415 170.222 241.991 168.258 244.585 164.506C245.507 162.37 246.429 160.235 246.832 158.85C247.522 155.445 250.464 153.597 253.002 153.134L255.022 153.421C256.925 153.074 259.061 153.996 260.677 155.668C261.659 157.456 262.641 159.244 261.72 161.379Z" fill="#16A34A"/>
</svg>
